<svg width="14" height="15" viewBox="0 0 14 14.6667" fill="none" xmlns="http://www.w3.org/2000/svg">
  <path fill-rule="evenodd" clip-rule="evenodd" d="M7.25245 0.585786C7.62753 0.210714 8.13623 0 8.66667 0C9.1971 0 9.70581 0.210714 10.0809 0.585786C10.456 0.960859 10.6667 1.46957 10.6667 2C10.6667 2.45459 10.5119 2.89322 10.2316 3.24546L11.5661 5.38096C11.7075 5.34954 11.8529 5.33333 12 5.33333C12.5304 5.33333 13.0391 5.54405 13.4142 5.91912C13.7893 6.29419 14 6.8029 14 7.33333C14 7.86377 13.7893 8.37247 13.4142 8.74755C13.0391 9.12262 12.5304 9.33333 12 9.33333C11.4696 9.33333 10.9609 9.12262 10.5858 8.74755C10.2107 8.37247 10 7.86377 10 7.33333C10 6.87859 10.1549 6.43982 10.4354 6.08752L9.10098 3.95228C8.95948 3.98376 8.81391 4 8.66667 4C8.51951 4 8.37402 3.98378 8.23259 3.95233L6.89816 6.0878C7.17855 6.44005 7.33333 6.87871 7.33333 7.33333C7.33333 7.78811 7.17844 8.22692 6.89787 8.57923L8.23275 10.7143C8.37413 10.6829 8.51956 10.6667 8.66667 10.6667C9.1971 10.6667 9.70581 10.8774 10.0809 11.2525C10.456 11.6275 10.6667 12.1362 10.6667 12.6667C10.6667 13.1971 10.456 13.7058 10.0809 14.0809C9.70581 14.456 9.1971 14.6667 8.66667 14.6667C8.13623 14.6667 7.62753 14.456 7.25245 14.0809C6.87738 13.7058 6.66667 13.1971 6.66667 12.6667C6.66667 12.2119 6.82153 11.7732 7.10204 11.4209L5.7671 9.28574C5.62577 9.31714 5.48039 9.33333 5.33333 9.33333C5.18625 9.33333 5.04083 9.31713 4.89947 9.28571L3.5645 11.4207C3.8451 11.773 4 12.2119 4 12.6667C4 13.1971 3.78929 13.7058 3.41421 14.0809C3.03914 14.456 2.53043 14.6667 2 14.6667C1.46957 14.6667 0.960859 14.456 0.585786 14.0809C0.210714 13.7058 0 13.1971 0 12.6667C0 12.1362 0.210714 11.6275 0.585786 11.2525C0.960859 10.8774 1.46957 10.6667 2 10.6667C2.14704 10.6667 2.29241 10.6829 2.43372 10.7143L3.76874 8.57915C3.4882 8.22686 3.33333 7.78808 3.33333 7.33333C3.33333 6.8029 3.54405 6.29419 3.91912 5.91912C4.29419 5.54405 4.8029 5.33333 5.33333 5.33333C5.48055 5.33333 5.62608 5.34956 5.76756 5.38103L7.10194 3.24565C6.82149 2.89338 6.66667 2.45467 6.66667 2C6.66667 1.46957 6.87738 0.960859 7.25245 0.585786ZM2 12C1.82319 12 1.65362 12.0702 1.5286 12.1953C1.40357 12.3203 1.33333 12.4899 1.33333 12.6667C1.33333 12.8435 1.40357 13.013 1.5286 13.1381C1.65362 13.2631 1.82319 13.3333 2 13.3333C2.17681 13.3333 2.34638 13.2631 2.4714 13.1381C2.59643 13.013 2.66667 12.8435 2.66667 12.6667C2.66667 12.4899 2.59643 12.3203 2.4714 12.1953C2.34638 12.0702 2.17681 12 2 12ZM8.66667 12C8.48986 12 8.32029 12.0702 8.19526 12.1953C8.07024 12.3203 8 12.4899 8 12.6667C8 12.8435 8.07024 13.013 8.19526 13.1381C8.32029 13.2631 8.48986 13.3333 8.66667 13.3333C8.84348 13.3333 9.01305 13.2631 9.13807 13.1381C9.2631 13.013 9.33333 12.8435 9.33333 12.6667C9.33333 12.4899 9.2631 12.3203 9.13807 12.1953C9.01305 12.0702 8.84348 12 8.66667 12ZM12 6.66667C11.8232 6.66667 11.6536 6.7369 11.5286 6.86193C11.4036 6.98695 11.3333 7.15652 11.3333 7.33333C11.3333 7.51014 11.4036 7.67971 11.5286 7.80474C11.6536 7.92976 11.8232 8 12 8C12.1768 8 12.3464 7.92976 12.4714 7.80474C12.5964 7.67971 12.6667 7.51014 12.6667 7.33333C12.6667 7.15652 12.5964 6.98695 12.4714 6.86193C12.3464 6.7369 12.1768 6.66667 12 6.66667ZM8.66667 1.33333C8.48986 1.33333 8.32029 1.40357 8.19526 1.5286C8.07024 1.65362 8 1.82319 8 2C8 2.17681 8.07024 2.34638 8.19526 2.4714C8.32029 2.59643 8.48986 2.66667 8.66667 2.66667C8.84348 2.66667 9.01305 2.59643 9.13807 2.4714C9.2631 2.34638 9.33333 2.17681 9.33333 2C9.33333 1.82319 9.2631 1.65362 9.13807 1.5286C9.01305 1.40357 8.84348 1.33333 8.66667 1.33333ZM5.33333 6.66667C5.15652 6.66667 4.98695 6.7369 4.86193 6.86193C4.7369 6.98695 4.66667 7.15652 4.66667 7.33333C4.66667 7.51014 4.7369 7.67971 4.86193 7.80474C4.98695 7.92976 5.15652 8 5.33333 8C5.51014 8 5.67971 7.92976 5.80474 7.80474C5.92976 7.67971 6 7.51014 6 7.33333C6 7.15652 5.92976 6.98695 5.80474 6.86193C5.67971 6.7369 5.51014 6.66667 5.33333 6.66667Z" fill="currentColor"/>
</svg>
