<svg width="20" height="20" viewBox="0 0 20 20" fill="none" xmlns="http://www.w3.org/2000/svg">
  <path fill-rule="evenodd" clip-rule="evenodd"
    d="M9.99999 3.33366C6.31809 3.33366 3.33332 6.31843 3.33332 10.0003C3.33332 13.6822 6.31809 16.667 9.99999 16.667C13.6819 16.667 16.6667 13.6822 16.6667 10.0003C16.6667 6.31843 13.6819 3.33366 9.99999 3.33366ZM1.66666 10.0003C1.66666 5.39795 5.39762 1.66699 9.99999 1.66699C14.6024 1.66699 18.3333 5.39795 18.3333 10.0003C18.3333 14.6027 14.6024 18.3337 9.99999 18.3337C5.39762 18.3337 1.66666 14.6027 1.66666 10.0003ZM9.99999 5.00033C10.4602 5.00033 10.8333 5.37342 10.8333 5.83366V9.55434L12.9622 10.9736C13.3452 11.2289 13.4487 11.7463 13.1934 12.1292C12.9381 12.5122 12.4207 12.6157 12.0377 12.3604L9.53774 10.6937C9.30591 10.5391 9.16666 10.279 9.16666 10.0003V5.83366C9.16666 5.37342 9.53975 5.00033 9.99999 5.00033Z"
    fill="#868E96" />
</svg>