<svg width="14" height="14" viewBox="0 0 13.3333 13.3333" fill="none" xmlns="http://www.w3.org/2000/svg">
  <path fill-rule="evenodd" clip-rule="evenodd" d="M2.66667 1.33333C2.31304 1.33333 1.97391 1.47381 1.72386 1.72386C1.47381 1.97391 1.33333 2.31304 1.33333 2.66667V6.39053L2.86193 4.86194L2.87107 4.85296C3.28051 4.45897 3.78484 4.22017 4.33333 4.22017C4.88183 4.22017 5.38616 4.45897 5.79559 4.85296L5.80474 4.86194L7.33333 6.39053L7.5286 6.19526L7.53804 6.18601C8.08842 5.65704 8.80059 5.42028 9.52285 5.62709C9.87682 5.72845 10.0816 6.09756 9.98024 6.45152C9.87889 6.80549 9.50978 7.01027 9.15581 6.90891C8.97106 6.85601 8.73675 6.88532 8.46629 7.14318L8.27614 7.33334L8.4714 7.5286C8.73175 7.78895 8.73175 8.21106 8.4714 8.47141C8.21105 8.73176 7.78894 8.73176 7.5286 8.47141L4.86689 5.80971C4.65936 5.61159 4.47456 5.55351 4.33333 5.55351C4.19211 5.55351 4.00731 5.61159 3.79978 5.80971L1.33333 8.27615V9.33333C1.33333 9.68695 1.47381 10.0261 1.72386 10.2761C1.97391 10.5262 2.31304 10.6667 2.66667 10.6667H6C6.36819 10.6667 6.66667 10.9651 6.66667 11.3333C6.66667 11.7015 6.36819 12 6 12H2.66667C1.95942 12 1.28115 11.719 0.781049 11.219C0.280952 10.7189 0 10.0406 0 9.33333V8.00012V2.66667C0 1.95942 0.280952 1.28115 0.781049 0.781049C1.28115 0.280952 1.95942 0 2.66667 0H9.33333C10.0406 0 10.7189 0.280952 11.219 0.781049C11.719 1.28115 12 1.95942 12 2.66667V6C12 6.36819 11.7015 6.66667 11.3333 6.66667C10.9651 6.66667 10.6667 6.36819 10.6667 6V2.66667C10.6667 2.31304 10.5262 1.97391 10.2761 1.72386C10.0261 1.47381 9.68695 1.33333 9.33333 1.33333H2.66667ZM7.33333 3.33333C7.33333 2.96514 7.63181 2.66667 8 2.66667H8.00667C8.37486 2.66667 8.67333 2.96514 8.67333 3.33333C8.67333 3.70152 8.37486 4 8.00667 4H8C7.63181 4 7.33333 3.70152 7.33333 3.33333ZM8.19526 10.1953L10.1953 8.19526C10.4556 7.93491 10.8777 7.93491 11.1381 8.19526L13.1381 10.1953C13.3984 10.4556 13.3984 10.8777 13.1381 11.1381C12.8777 11.3984 12.4556 11.3984 12.1953 11.1381L11.3333 10.2761V12.6667C11.3333 13.0349 11.0349 13.3333 10.6667 13.3333C10.2985 13.3333 10 13.0349 10 12.6667V10.2761L9.13807 11.1381C8.87772 11.3984 8.45561 11.3984 8.19526 11.1381C7.93491 10.8777 7.93491 10.4556 8.19526 10.1953Z" fill="currentColor"/>
</svg>
