<svg width="14" height="14" viewBox="0 0 13.3333 13.3333" fill="none" xmlns="http://www.w3.org/2000/svg">
  <path fill-rule="evenodd" clip-rule="evenodd" d="M5.33333 1.33333C3.12419 1.33333 1.33333 3.12419 1.33333 5.33333C1.33333 7.54247 3.12419 9.33333 5.33333 9.33333C7.54247 9.33333 9.33333 7.54247 9.33333 5.33333C9.33333 3.12419 7.54247 1.33333 5.33333 1.33333ZM0 5.33333C0 2.38781 2.38781 0 5.33333 0C8.27885 0 10.6667 2.38781 10.6667 5.33333C10.6667 6.56581 10.2486 7.70064 9.54657 8.60376L13.1381 12.1953C13.3984 12.4556 13.3984 12.8777 13.1381 13.1381C12.8777 13.3984 12.4556 13.3984 12.1953 13.1381L8.60376 9.54657C7.70064 10.2486 6.56581 10.6667 5.33333 10.6667C2.38781 10.6667 0 8.27885 0 5.33333Z" fill="currentColor"/>
</svg>
