<svg width="13" height="10" viewBox="0 0 12.6667 9.33333" fill="none" xmlns="http://www.w3.org/2000/svg">
  <path fill-rule="evenodd" clip-rule="evenodd" d="M0 0.666667C0 0.298477 0.298477 0 0.666667 0H6.66667C7.03486 0 7.33333 0.298477 7.33333 0.666667C7.33333 1.03486 7.03486 1.33333 6.66667 1.33333H0.666667C0.298477 1.33333 0 1.03486 0 0.666667ZM10 0C10.3682 0 10.6667 0.298477 10.6667 0.666667V7.05719L11.5286 6.19526C11.7889 5.93491 12.2111 5.93491 12.4714 6.19526C12.7318 6.45561 12.7318 6.87772 12.4714 7.13807L10.4714 9.13807C10.2111 9.39842 9.78895 9.39842 9.5286 9.13807L7.5286 7.13807C7.26825 6.87772 7.26825 6.45561 7.5286 6.19526C7.78895 5.93491 8.21106 5.93491 8.4714 6.19526L9.33333 7.05719V0.666667C9.33333 0.298477 9.63181 0 10 0ZM0 4.66667C0 4.29848 0.298477 4 0.666667 4H5.33333C5.70152 4 6 4.29848 6 4.66667C6 5.03486 5.70152 5.33333 5.33333 5.33333H0.666667C0.298477 5.33333 0 5.03486 0 4.66667ZM0 8.66667C0 8.29848 0.298477 8 0.666667 8H5.33333C5.70152 8 6 8.29848 6 8.66667C6 9.03486 5.70152 9.33333 5.33333 9.33333H0.666667C0.298477 9.33333 0 9.03486 0 8.66667Z" fill="currentColor"/>
</svg>
